<svg id="visual" viewBox="0 0 960 540" width="960" height="540" xmlns="http://www.w3.org/2000/svg" xmlns:xlink="http://www.w3.org/1999/xlink" version="1.1"><rect x="0" y="0" width="960" height="540" fill="#18122B"></rect><path d="M0 103L22.8 96.2C45.7 89.3 91.3 75.7 137 73.2C182.7 70.7 228.3 79.3 274 86.3C319.7 93.3 365.3 98.7 411.2 91.3C457 84 503 64 548.8 64C594.7 64 640.3 84 686 93.8C731.7 103.7 777.3 103.3 823 97.5C868.7 91.7 914.3 80.3 937.2 74.7L960 69L960 0L937.2 0C914.3 0 868.7 0 823 0C777.3 0 731.7 0 686 0C640.3 0 594.7 0 548.8 0C503 0 457 0 411.2 0C365.3 0 319.7 0 274 0C228.3 0 182.7 0 137 0C91.3 0 45.7 0 22.8 0L0 0Z" fill="#241f35" stroke-linecap="round" stroke-linejoin="miter"></path></svg>